<?xml version="1.0" encoding="UTF-8"?> <svg xmlns="http://www.w3.org/2000/svg" viewBox="0 0 849 194"><defs><style>.cls-1{fill:#f58220;}.cls-2{fill:#2b2b2b;}</style></defs><g id="Logo"><path class="cls-1" d="M826,74.41c-1.71-2.84-6.4-5.54-11.8-5.54-7,0-10.31,2.91-10.31,6.6,0,4.35,5.12,5.55,11.09,6.26,10.38,1.28,20,4,20,15.86,0,11.09-9.81,15.85-20.91,15.85-10.16,0-18-3.13-21.68-12.23l7.82-4c2.2,5.48,8,7.9,14,7.9s11.45-2.06,11.45-7.47c0-4.7-4.91-6.61-11.52-7.33-10.17-1.2-19.56-3.91-19.56-15.07,0-10.24,10.1-14.43,19.27-14.51,7.75,0,15.79,2.21,19.56,9.89Z"></path><polygon class="cls-1" points="774.46 62.68 752.35 86.5 776.31 111.59 776.31 112.16 764.72 112.16 743.88 90.12 743.88 112.16 734.5 112.16 734.5 62.4 743.88 62.4 743.88 83.44 762.8 62.4 774.46 62.4 774.46 62.68"></polygon><polygon class="cls-1" points="702.29 62.32 711.67 62.32 711.67 112.16 705.84 112.16 705.84 112.24 679.68 78.6 679.68 112.16 670.29 112.16 670.29 62.4 677.89 62.4 702.29 93.25 702.29 62.32"></polygon><path class="cls-1" d="M606.58,87.78c.21,8.18,4.62,16.92,16.35,16.92s16.14-8.82,16.28-17c.15-8.39-4.55-17.77-16.28-17.77s-16.57,9.45-16.35,17.85m41.88-.22c-.15,12.87-8,25.74-25.53,25.74s-25.6-12.59-25.6-25.67,8.39-26.23,25.6-26.23,25.67,13.15,25.53,26.16"></path><polygon class="cls-1" points="567.11 76.12 550.9 97.73 549.05 97.73 533.19 76.04 533.19 112.24 523.81 112.24 523.81 62.46 534.62 62.46 550.19 83.86 565.76 62.46 576.49 62.46 576.49 112.24 567.11 112.24 567.11 76.12"></polygon><path class="cls-1" d="M468.2,103.14h10.24c11.31,0,15.79-8.25,15.57-16.36-.21-7.75-4.76-15.5-15.57-15.5H468.2Zm35.13-16.29c.21,12.59-7.47,25.31-24.89,25.31H458.89V62.4h19.55c17.07,0,24.68,12.15,24.89,24.45"></path><polygon class="cls-1" points="427.31 62.32 436.7 62.32 436.7 112.16 430.87 112.16 430.87 112.24 404.7 78.6 404.7 112.16 395.32 112.16 395.32 62.4 402.93 62.4 427.31 93.25 427.31 62.32"></polygon><path class="cls-1" d="M348.67,72.84,339.43,94h18.49Zm13,29.94h-26l-4.26,9.38H321.23L343.56,62.4h10.23l22.33,49.76H365.88Z"></path><path class="cls-1" d="M273.59,71.14V87.07h14.29c6,0,8.53-4,8.53-8s-2.63-8-8.53-8Zm34.69,41H297.12l-14.5-16.64h-9v16.64H264.2V62.32c7.89,0,15.79.08,23.68.08,11.73.06,17.92,7.88,17.92,16.49,0,6.82-3.13,13.72-12.59,15.64l15.07,17Z"></path><path class="cls-1" d="M210.3,103.42h14.37c3.83,0,9.31-1.28,9.31-6,0-4.48-5.48-6.83-9.31-6.83H210.3Zm0-21h14.37c5.9,0,7.82-2.48,7.82-5.33,0-2.28-1.85-6.11-7.82-6.11H210.3Zm31.5-5.55a10.11,10.11,0,0,1-6.47,9.6c5.83,1.78,8,8,8,11.1,0,11.09-8.32,14.64-18.62,14.64H201.06V62.4h23.61c9.81,0,17.13,4.4,17.13,14.42"></path><path class="cls-1" d="M181.18,122.77c-17.1-10.13-34.12-20.41-51.17-30.64l0,.06L105.23,77.57a8.14,8.14,0,0,1-3.88-5.39,6.23,6.23,0,0,0-.94,3.82q.3,13.17,0,26.35a6.33,6.33,0,0,0,3.64,6.45c15.3,8.84,30.47,17.9,45.68,26.89l.33.21h0l4.35,2.7H43.68V40.21H154.41c-2.09,1.34-3.37,2.23-4.7,3-14.26,8.36-28.5,16.76-42.82,25a3.06,3.06,0,0,0-1.14,2.5,3.46,3.46,0,0,0,1.68,2.84l.08,0,22.1,13.06c12-7.08,23.86-14.27,35.63-21.31q8-4.77,15.94-9.48c2.39-1.41,3.51-2.84,3.07-5.72C182.56,39.08,181,28,179.42,16.81c0-.17,0-.37-.09-.63h0A3.81,3.81,0,0,0,175.57,13H14.38V165.68H175.63a3.79,3.79,0,0,0,3.69-3.16h0c0-.26.06-.46.09-.64,1.59-11.12,3.14-22.26,4.83-33.37.44-2.87-.68-4.31-3.07-5.72"></path></g><g id="Claim"><path class="cls-2" d="M426.84,161.45a6.93,6.93,0,0,1-2.94,1.24,19.92,19.92,0,0,1-3.79.35,12.28,12.28,0,0,1-4.56-.84,9.9,9.9,0,0,1-3.72-2.53,12.24,12.24,0,0,1-2.51-4.35,19,19,0,0,1-.93-6.28,17.71,17.71,0,0,1,1-6.44,12.21,12.21,0,0,1,2.7-4.33,10.42,10.42,0,0,1,3.78-2.46,12,12,0,0,1,4.25-.77,23,23,0,0,1,3.79.25,11.74,11.74,0,0,1,2.51.68l-.77,2.86a12.1,12.1,0,0,0-5.3-.93,8.76,8.76,0,0,0-3.13.58,7.37,7.37,0,0,0-2.77,1.89,9.69,9.69,0,0,0-2,3.45,16.06,16.06,0,0,0-.73,5.22,15.55,15.55,0,0,0,.69,4.87,10,10,0,0,0,1.92,3.48,7.81,7.81,0,0,0,2.86,2.09,9.14,9.14,0,0,0,3.58.69,11.82,11.82,0,0,0,3-.34,8.92,8.92,0,0,0,2.19-.89Z"></path><path class="cls-2" d="M428.89,152.9q0-4.91,2.18-7.52a7.74,7.74,0,0,1,6.29-2.61,9.15,9.15,0,0,1,3.77.72,6.8,6.8,0,0,1,2.65,2,8.88,8.88,0,0,1,1.54,3.21,15.78,15.78,0,0,1,.51,4.15c0,3.28-.73,5.78-2.19,7.52a7.7,7.7,0,0,1-6.28,2.62,9.12,9.12,0,0,1-3.77-.72,6.82,6.82,0,0,1-2.65-2,8.89,8.89,0,0,1-1.55-3.21A16.3,16.3,0,0,1,428.89,152.9Zm3.21,0a13.79,13.79,0,0,0,.29,2.83,7.07,7.07,0,0,0,.91,2.35,4.77,4.77,0,0,0,1.62,1.63,4.58,4.58,0,0,0,2.44.62q5.25,0,5.26-7.43a13.87,13.87,0,0,0-.29-2.86,7.69,7.69,0,0,0-.91-2.36,4.71,4.71,0,0,0-1.63-1.6,4.66,4.66,0,0,0-2.43-.6Q432.1,145.44,432.1,152.9Z"></path><path class="cls-2" d="M459.83,146.21a7.23,7.23,0,0,0-2.21-.38,3.67,3.67,0,0,0-2.63.91,4,4,0,0,0-1.2,2.3v13.53H450.7V143.24h2.17l.58,2.35h.15a6.09,6.09,0,0,1,1.76-2,4.49,4.49,0,0,1,2.61-.71,9.38,9.38,0,0,1,2.51.39Z"></path><path class="cls-2" d="M463.85,143.24H466l.58,2.32h.16a5.79,5.79,0,0,1,2.3-2.07,7,7,0,0,1,3.23-.72q3.87,0,5.76,2.28c1.26,1.52,1.9,4,1.9,7.47a14.31,14.31,0,0,1-.64,4.39,9.69,9.69,0,0,1-1.8,3.3,7.81,7.81,0,0,1-2.8,2.09A8.9,8.9,0,0,1,471,163a11.16,11.16,0,0,1-2.26-.18,8.43,8.43,0,0,1-1.8-.6v8.05h-3.09Zm7.81,2.24a4.48,4.48,0,0,0-3.11,1,5.76,5.76,0,0,0-1.61,3.12v9.59a5.35,5.35,0,0,0,1.59.83,7.92,7.92,0,0,0,2.36.29,5.08,5.08,0,0,0,4.23-2,9.31,9.31,0,0,0,1.57-5.86,14.1,14.1,0,0,0-.27-2.88,6.31,6.31,0,0,0-.87-2.21A4.28,4.28,0,0,0,474,146,5,5,0,0,0,471.66,145.48Z"></path><path class="cls-2" d="M483.68,152.9q0-4.91,2.19-7.52a7.73,7.73,0,0,1,6.28-2.61,9.12,9.12,0,0,1,3.77.72,6.73,6.73,0,0,1,2.65,2,8.73,8.73,0,0,1,1.55,3.21,15.79,15.79,0,0,1,.5,4.15c0,3.28-.73,5.78-2.18,7.52a7.72,7.72,0,0,1-6.29,2.62,9.15,9.15,0,0,1-3.77-.72,6.9,6.9,0,0,1-2.65-2,8.88,8.88,0,0,1-1.54-3.21A15.85,15.85,0,0,1,483.68,152.9Zm3.21,0a13.79,13.79,0,0,0,.29,2.83,7.53,7.53,0,0,0,.91,2.35,4.89,4.89,0,0,0,1.63,1.63,4.57,4.57,0,0,0,2.43.62q5.27,0,5.26-7.43a13.21,13.21,0,0,0-.29-2.86,7.22,7.22,0,0,0-.91-2.36,4.51,4.51,0,0,0-4.06-2.2Q486.9,145.44,486.89,152.9Z"></path><path class="cls-2" d="M514.62,146.21a7.17,7.17,0,0,0-2.2-.38,3.66,3.66,0,0,0-2.63.91,3.93,3.93,0,0,0-1.2,2.3v13.53H505.5V143.24h2.16l.58,2.35h.16a6,6,0,0,1,1.76-2,4.49,4.49,0,0,1,2.61-.71,9.44,9.44,0,0,1,2.51.39Z"></path><path class="cls-2" d="M518.33,144.67a11.2,11.2,0,0,1,3.43-1.32,19.33,19.33,0,0,1,4.08-.42,8.11,8.11,0,0,1,3.23.54,4.45,4.45,0,0,1,1.85,1.41,4.76,4.76,0,0,1,.85,1.91,10.68,10.68,0,0,1,.22,2.09q0,2.33-.12,4.53t-.12,4.17c0,1,0,1.86.12,2.71a13.6,13.6,0,0,0,.42,2.36H530l-.81-2.71H529a6,6,0,0,1-.87,1.06,5.56,5.56,0,0,1-1.26.93,8,8,0,0,1-1.7.68,8.26,8.26,0,0,1-2.21.27,6.65,6.65,0,0,1-2.3-.39,5.18,5.18,0,0,1-3-2.82,5.52,5.52,0,0,1-.45-2.28,5.38,5.38,0,0,1,.7-2.84,5,5,0,0,1,2-1.82,9.93,9.93,0,0,1,3-1,24.37,24.37,0,0,1,3.89-.29h1.06a7.68,7.68,0,0,1,1.06.08,20.45,20.45,0,0,0,.12-2.09,4.19,4.19,0,0,0-.85-3,4.4,4.4,0,0,0-3.1-.85,12.28,12.28,0,0,0-1.41.1c-.5.07-1,.16-1.54.28a13.31,13.31,0,0,0-1.51.44,6.71,6.71,0,0,0-1.26.58Zm5.5,15.5a5.8,5.8,0,0,0,1.93-.29,5.31,5.31,0,0,0,1.47-.73,4.81,4.81,0,0,0,1-1,4.53,4.53,0,0,0,.6-1v-3.21c-.36,0-.73,0-1.1-.06l-1.1,0a19.88,19.88,0,0,0-2.34.14,7.22,7.22,0,0,0-2,.5,3.39,3.39,0,0,0-1.39,1,2.43,2.43,0,0,0-.53,1.6,2.87,2.87,0,0,0,1,2.22A3.57,3.57,0,0,0,523.83,160.17Z"></path><path class="cls-2" d="M535.27,143.24h3v-3.83l3.09-.89v4.72h5.26v2.7h-5.26v10.71a5.93,5.93,0,0,0,.5,2.85,1.85,1.85,0,0,0,1.71.83,6,6,0,0,0,1.7-.21c.46-.15,1-.33,1.54-.57l.7,2.36a12,12,0,0,1-2.28.82,11.36,11.36,0,0,1-2.67.31,3.85,3.85,0,0,1-3.33-1.34,7.88,7.88,0,0,1-1-4.47V145.94h-3Z"></path><path class="cls-2" d="M565.05,161a8.7,8.7,0,0,1-2.92,1.47,12.65,12.65,0,0,1-3.73.55,9.38,9.38,0,0,1-3.83-.72,6.89,6.89,0,0,1-2.67-2,8.87,8.87,0,0,1-1.55-3.19,16.24,16.24,0,0,1-.5-4.18q0-5,2.21-7.54a7.82,7.82,0,0,1,6.3-2.59,12.46,12.46,0,0,1,2.63.29,5.88,5.88,0,0,1,2.36,1.1,6,6,0,0,1,1.7,2.3,9.87,9.87,0,0,1,.66,3.93,18.5,18.5,0,0,1-.24,2.82H553.06a11.93,11.93,0,0,0,.35,3,5.76,5.76,0,0,0,1.08,2.22,4.63,4.63,0,0,0,1.92,1.39,7.41,7.41,0,0,0,2.88.49,7.9,7.9,0,0,0,2.63-.47,5.7,5.7,0,0,0,2-1.08Zm-6.65-15.54a5.38,5.38,0,0,0-3.66,1.2,6,6,0,0,0-1.64,4.1h9.59c0-2-.37-3.34-1.12-4.12A4.16,4.16,0,0,0,558.4,145.48Z"></path><path class="cls-2" d="M597.5,138.36h-8.43v24.21h-3.21V138.36h-8.43V135.5H597.5Z"></path><path class="cls-2" d="M596.8,144.67a11.14,11.14,0,0,1,3.42-1.32,19.33,19.33,0,0,1,4.08-.42,8.07,8.07,0,0,1,3.23.54,4.55,4.55,0,0,1,1.86,1.41,4.9,4.9,0,0,1,.85,1.91,10.66,10.66,0,0,1,.21,2.09q0,2.33-.12,4.53c-.07,1.47-.11,2.86-.11,4.17,0,1,0,1.86.11,2.71a12.7,12.7,0,0,0,.43,2.36h-2.28l-.81-2.71h-.2a6,6,0,0,1-.87,1.06,5.73,5.73,0,0,1-1.25.93,7.92,7.92,0,0,1-1.71.68,8.18,8.18,0,0,1-2.2.27,6.61,6.61,0,0,1-2.3-.39,5.16,5.16,0,0,1-3.06-2.82,5.69,5.69,0,0,1-.44-2.28,5.38,5.38,0,0,1,.69-2.84,5.07,5.07,0,0,1,2-1.82,9.86,9.86,0,0,1,3-1,24.46,24.46,0,0,1,3.89-.29h1.06a7.82,7.82,0,0,1,1.07.08,20.23,20.23,0,0,0,.11-2.09,4.15,4.15,0,0,0-.85-3,4.38,4.38,0,0,0-3.09-.85,12,12,0,0,0-1.41.1c-.5.07-1,.16-1.55.28a13.31,13.31,0,0,0-1.51.44,6.91,6.91,0,0,0-1.25.58Zm5.49,15.5a5.76,5.76,0,0,0,1.93-.29,5.31,5.31,0,0,0,1.47-.73,4.64,4.64,0,0,0,1-1,4.53,4.53,0,0,0,.6-1v-3.21c-.36,0-.73,0-1.1-.06l-1.11,0a19.88,19.88,0,0,0-2.34.14,7.22,7.22,0,0,0-2,.5,3.46,3.46,0,0,0-1.39,1,2.42,2.42,0,0,0-.52,1.6,2.84,2.84,0,0,0,1,2.22A3.55,3.55,0,0,0,602.29,160.17Z"></path><path class="cls-2" d="M619.73,157.81a3.14,3.14,0,0,0,.47,1.94,1.58,1.58,0,0,0,1.31.58,8.46,8.46,0,0,0,1.08-.08,6.2,6.2,0,0,0,1.32-.35l.35,2.44a6.46,6.46,0,0,1-1.73.5,11.18,11.18,0,0,1-1.91.2,4.16,4.16,0,0,1-2.86-1,4.27,4.27,0,0,1-1.12-3.35V135.5h3.09Z"></path><path class="cls-2" d="M641.7,161a8.79,8.79,0,0,1-2.92,1.47A12.72,12.72,0,0,1,635,163a9.42,9.42,0,0,1-3.83-.72,6.78,6.78,0,0,1-2.66-2,8.71,8.71,0,0,1-1.55-3.19,16.24,16.24,0,0,1-.5-4.18q0-5,2.2-7.54a7.84,7.84,0,0,1,6.3-2.59,12.32,12.32,0,0,1,2.63.29,5.76,5.76,0,0,1,2.36,1.1,5.88,5.88,0,0,1,1.71,2.3,10.06,10.06,0,0,1,.65,3.93,18.4,18.4,0,0,1-.23,2.82H629.71a11.5,11.5,0,0,0,.35,3,5.76,5.76,0,0,0,1.08,2.22,4.67,4.67,0,0,0,1.91,1.39,7.47,7.47,0,0,0,2.88.49,7.81,7.81,0,0,0,2.63-.47,5.67,5.67,0,0,0,2-1.08ZM635,145.48a5.34,5.34,0,0,0-3.65,1.2,6,6,0,0,0-1.64,4.1h9.59c0-2-.38-3.34-1.13-4.12A4.13,4.13,0,0,0,635,145.48Z"></path><path class="cls-2" d="M659.64,162.57v-11a9.36,9.36,0,0,0-.87-4.54,3.34,3.34,0,0,0-3.19-1.53,5.13,5.13,0,0,0-3.38,1.1,5.9,5.9,0,0,0-1.88,2.77v13.22h-3.09V143.24h2.16l.58,2.35h.16a7.1,7.1,0,0,1,2.49-2,8.28,8.28,0,0,1,3.73-.79,9.38,9.38,0,0,1,2.79.37,4.18,4.18,0,0,1,2,1.29,6.14,6.14,0,0,1,1.2,2.5,16.15,16.15,0,0,1,.4,4v11.68Z"></path><path class="cls-2" d="M665.83,143.24h3v-3.83l3.1-.89v4.72h5.26v2.7h-5.26v10.71a5.81,5.81,0,0,0,.5,2.85,1.83,1.83,0,0,0,1.7.83,5.93,5.93,0,0,0,1.7-.21c.47-.15,1-.33,1.55-.57l.7,2.36a11.89,11.89,0,0,1-2.29.82,11.22,11.22,0,0,1-2.66.31,3.83,3.83,0,0,1-3.33-1.34,7.87,7.87,0,0,1-1-4.47V145.94h-3Z"></path><path class="cls-2" d="M690,157.31a2.41,2.41,0,0,0-.7-1.82,6.27,6.27,0,0,0-1.72-1.1c-.69-.29-1.43-.58-2.25-.85a10.93,10.93,0,0,1-2.24-1,6,6,0,0,1-1.72-1.65,4.7,4.7,0,0,1-.69-2.7,4.94,4.94,0,0,1,1.58-4.08,6.76,6.76,0,0,1,4.41-1.3,13.9,13.9,0,0,1,3.5.37,12.66,12.66,0,0,1,2.45.87l-.73,2.55a12.4,12.4,0,0,0-2.15-.75,10.47,10.47,0,0,0-2.68-.33,4.25,4.25,0,0,0-2.5.58,2.33,2.33,0,0,0-.79,2,1.92,1.92,0,0,0,.69,1.57,7.8,7.8,0,0,0,1.73,1c.68.3,1.43.59,2.24.87a9.58,9.58,0,0,1,2.24,1.12,6.27,6.27,0,0,1,1.72,1.76,5,5,0,0,1,.7,2.81,6.62,6.62,0,0,1-.41,2.32,4.71,4.71,0,0,1-1.25,1.85,6.13,6.13,0,0,1-2.11,1.22,8.82,8.82,0,0,1-3,.45,14.43,14.43,0,0,1-3.75-.43,11.38,11.38,0,0,1-2.59-1L681,159a10.71,10.71,0,0,0,2.32.93,9.89,9.89,0,0,0,2.9.43,5.2,5.2,0,0,0,2.74-.66A2.54,2.54,0,0,0,690,157.31Z"></path><path class="cls-2" d="M709.68,155.34a8.22,8.22,0,0,1,.54-3,10.19,10.19,0,0,1,1.47-2.61,14.6,14.6,0,0,1,2.11-2.2,18,18,0,0,1,2.45-1.78,23.4,23.4,0,0,1-1.6-2.79,6.78,6.78,0,0,1-.68-3,5.4,5.4,0,0,1,.31-1.82,4.43,4.43,0,0,1,1-1.59,5.07,5.07,0,0,1,1.74-1.12,7,7,0,0,1,2.57-.42,7.74,7.74,0,0,1,2.67.4,4.81,4.81,0,0,1,1.74,1.07,3.93,3.93,0,0,1,.94,1.47,4.72,4.72,0,0,1,.29,1.66A5.72,5.72,0,0,1,724,143a12.91,12.91,0,0,1-4,3.31,26.22,26.22,0,0,0,1.45,2.3c.56.79,1.14,1.57,1.76,2.34s1.25,1.54,1.9,2.3,1.29,1.47,1.93,2.11a6.55,6.55,0,0,0,.85-1.18c.29-.48.56-1,.83-1.51a15.18,15.18,0,0,0,.74-1.64c.22-.57.42-1.11.6-1.63l2.4,1.13c-.16.43-.38,1-.66,1.56s-.6,1.23-.95,1.86-.7,1.24-1.06,1.82a15.32,15.32,0,0,1-1,1.45c.54.51,1,1,1.47,1.33s.85.7,1.22,1,.73.51,1.08.73.7.43,1.07.64L731.68,163a19.31,19.31,0,0,1-4.68-3.6,15.23,15.23,0,0,1-1.52,1.33,10.22,10.22,0,0,1-1.88,1.14,11.75,11.75,0,0,1-2.3.82,11.92,11.92,0,0,1-2.77.31,11.23,11.23,0,0,1-3.42-.51,8.09,8.09,0,0,1-2.8-1.49,7.07,7.07,0,0,1-2.63-5.7Zm15.51,2.16a30.91,30.91,0,0,1-2.21-2.43c-.72-.88-1.41-1.75-2.07-2.63s-1.26-1.72-1.82-2.53-1-1.53-1.41-2.15a24,24,0,0,0-1.93,1.59,12,12,0,0,0-1.57,1.72,7.05,7.05,0,0,0-1,2,6.58,6.58,0,0,0-.37,2.24,4.58,4.58,0,0,0,.5,2.15,4.66,4.66,0,0,0,1.38,1.58,6.51,6.51,0,0,0,2,1,8,8,0,0,0,2.36.35,6.86,6.86,0,0,0,1.87-.25,10.34,10.34,0,0,0,1.72-.64,9,9,0,0,0,1.49-.89A5.92,5.92,0,0,0,725.19,157.5ZM717,140a5.89,5.89,0,0,0,.48,2.3,12.45,12.45,0,0,0,1.26,2.26,10.79,10.79,0,0,0,2.84-2.4,3.35,3.35,0,0,0,.79-1.89,3.16,3.16,0,0,0-.6-2,2.46,2.46,0,0,0-2.07-.78,2.73,2.73,0,0,0-2.05.7A2.57,2.57,0,0,0,717,140Z"></path><path class="cls-2" d="M750.94,135.5h3.21v27.07h-3.21Z"></path><path class="cls-2" d="M776,155.92c0,1.31,0,2.51,0,3.58a17.36,17.36,0,0,0,.35,3.15H774.3l-.78-2.75h-.15a6.27,6.27,0,0,1-2.24,2.25,6.56,6.56,0,0,1-3.45.89,6.81,6.81,0,0,1-5.74-2.44c-1.25-1.63-1.87-4.16-1.87-7.62q0-4.95,2.34-7.52a8.27,8.27,0,0,1,6.43-2.57,13.47,13.47,0,0,1,2.27.15,13.07,13.07,0,0,1,1.8.5v-8H776Zm-7.81,4.41a4.53,4.53,0,0,0,3.13-1,5.52,5.52,0,0,0,1.59-3.11V146.6a4.36,4.36,0,0,0-1.59-.77,9.35,9.35,0,0,0-2.36-.24,5.23,5.23,0,0,0-4.18,1.76c-1,1.18-1.5,3.05-1.5,5.63a15.88,15.88,0,0,0,.25,2.94,6.9,6.9,0,0,0,.83,2.32,4.4,4.4,0,0,0,1.53,1.53A4.48,4.48,0,0,0,768.19,160.33Z"></path><path class="cls-2" d="M796.07,161a8.7,8.7,0,0,1-2.92,1.47,12.65,12.65,0,0,1-3.73.55,9.38,9.38,0,0,1-3.83-.72,6.89,6.89,0,0,1-2.67-2,8.87,8.87,0,0,1-1.55-3.19,16.24,16.24,0,0,1-.5-4.18q0-5,2.21-7.54a7.82,7.82,0,0,1,6.3-2.59,12.46,12.46,0,0,1,2.63.29,5.88,5.88,0,0,1,2.36,1.1,6,6,0,0,1,1.7,2.3,9.87,9.87,0,0,1,.66,3.93,19.76,19.76,0,0,1-.23,2.82H784.08a11.93,11.93,0,0,0,.35,3,5.76,5.76,0,0,0,1.08,2.22,4.63,4.63,0,0,0,1.92,1.39,7.41,7.41,0,0,0,2.88.49,7.9,7.9,0,0,0,2.63-.47,5.7,5.7,0,0,0,2-1.08Zm-6.65-15.54a5.38,5.38,0,0,0-3.66,1.2,6,6,0,0,0-1.64,4.1h9.59c0-2-.37-3.34-1.12-4.12A4.16,4.16,0,0,0,789.42,145.48Z"></path><path class="cls-2" d="M801.29,144.67a11.14,11.14,0,0,1,3.42-1.32,19.33,19.33,0,0,1,4.08-.42,8.07,8.07,0,0,1,3.23.54,4.55,4.55,0,0,1,1.86,1.41,4.9,4.9,0,0,1,.85,1.91,10.66,10.66,0,0,1,.21,2.09q0,2.33-.12,4.53c-.07,1.47-.11,2.86-.11,4.17,0,1,0,1.86.11,2.71a12.7,12.7,0,0,0,.43,2.36H813l-.81-2.71H812a6,6,0,0,1-.87,1.06,5.5,5.5,0,0,1-1.25.93,7.92,7.92,0,0,1-1.71.68,8.18,8.18,0,0,1-2.2.27,6.61,6.61,0,0,1-2.3-.39,5.16,5.16,0,0,1-3.06-2.82,5.69,5.69,0,0,1-.44-2.28,5.29,5.29,0,0,1,.7-2.84,5,5,0,0,1,1.95-1.82,9.86,9.86,0,0,1,3-1,24.46,24.46,0,0,1,3.89-.29h1.06a7.82,7.82,0,0,1,1.07.08,20.23,20.23,0,0,0,.11-2.09,4.15,4.15,0,0,0-.85-3,4.38,4.38,0,0,0-3.09-.85,12,12,0,0,0-1.41.1c-.5.07-1,.16-1.55.28a13.31,13.31,0,0,0-1.51.44,6.91,6.91,0,0,0-1.25.58Zm5.49,15.5a5.76,5.76,0,0,0,1.93-.29,5.31,5.31,0,0,0,1.47-.73,4.64,4.64,0,0,0,1-1,4.53,4.53,0,0,0,.6-1v-3.21c-.36,0-.73,0-1.1-.06l-1.11,0a19.88,19.88,0,0,0-2.34.14,7.22,7.22,0,0,0-2,.5,3.46,3.46,0,0,0-1.39,1,2.42,2.42,0,0,0-.52,1.6,2.84,2.84,0,0,0,1,2.22A3.55,3.55,0,0,0,806.78,160.17Z"></path><path class="cls-2" d="M829.29,157.31a2.41,2.41,0,0,0-.7-1.82,6.12,6.12,0,0,0-1.72-1.1c-.68-.29-1.43-.58-2.24-.85a11,11,0,0,1-2.25-1,6,6,0,0,1-1.72-1.65,4.7,4.7,0,0,1-.69-2.7,5,5,0,0,1,1.58-4.08,6.76,6.76,0,0,1,4.41-1.3,13.9,13.9,0,0,1,3.5.37,13,13,0,0,1,2.46.87l-.74,2.55a12.57,12.57,0,0,0-2.14-.75,10.6,10.6,0,0,0-2.69-.33,4.25,4.25,0,0,0-2.5.58,2.36,2.36,0,0,0-.79,2,1.9,1.9,0,0,0,.7,1.57,7.5,7.5,0,0,0,1.72,1c.68.3,1.43.59,2.24.87a9.58,9.58,0,0,1,2.24,1.12,6.14,6.14,0,0,1,1.72,1.76,5,5,0,0,1,.7,2.81,6.4,6.4,0,0,1-.41,2.32,4.61,4.61,0,0,1-1.25,1.85,6.13,6.13,0,0,1-2.11,1.22,8.77,8.77,0,0,1-3,.45,14.43,14.43,0,0,1-3.75-.43,11.57,11.57,0,0,1-2.59-1l.93-2.63a10.71,10.71,0,0,0,2.32.93,9.89,9.89,0,0,0,2.9.43,5.17,5.17,0,0,0,2.74-.66A2.52,2.52,0,0,0,829.29,157.31Z"></path></g></svg> 